<?xml version="1.0" encoding="utf-8"?>
<!-- Generator: Adobe Illustrator 19.2.1, SVG Export Plug-In . SVG Version: 6.00 Build 0)  -->
<svg version="1.1" id="Layer_1" xmlns="http://www.w3.org/2000/svg" xmlns:xlink="http://www.w3.org/1999/xlink" x="0px" y="0px"
	 viewBox="0 0 960 560" style="enable-background:new 0 0 960 560;" xml:space="preserve">
<style type="text/css">
	.st0{clip-path:url(#SVGID_2_);}
</style>
<g>
	<defs>
		<path id="SVGID_1_" d="M255.6,176.7c0,0,1.4-19.5,1.9-28.4c0.5-8.9-1.6-11.8,1.9-30.6c3.5-18.8,40.1-101.4,96.5-105.4
			s80.8,32,87.1,37.6c6.1,5.5,24.5,37.9,25.6,43.4c2.6,4.8,8.4,34.4,8.6,38.4c0.3,4.3,0.7,54.1,0.7,54.1s8.1-5.5,12.6-4.1
			c9,1.7,3.9,24.7-3.7,42.7c-8.1,21.9-4.6,28.9-9.8,38.6c-3.3,4.7-7.8,6.1-7.8,6.1s-14.7,44-16.9,47.2c-3,3-15.2,22.8-7.3,29.2
			c7.9,6.4,16.2,13.3,16.2,13.3s34.7,8.1,42.9,8.3c9.6,0.3,49.9,12.8,52.4,14.3s16.7,5.4,16.7,5.4l15.4,1.8
			c8.4,9.4,41.3,4.4,41.3,4.4l4.3,7L631,521H133.2v-89.1c0,0-7.9-11.9,9.4-12.4s23.8,18.8,38.1-14.8c20.7-1.4,62.4-22.3,62.4-22.3
			l16.8-19.3c0,0,20.2,12.1,20.2-29c-6-11.3-14.7-69-19.2-71c-4.5-2-10.2-4.3-8.5-14.9c-0.7-4.8-4.9-16.3-4.8-27
			c-0.8-6.3-5.9-18.7-6.4-22.2c-1.2-6.5,1.1-23.6,5.5-24.1C252.8,172.8,255.6,176.7,255.6,176.7z"/>
	</defs>
	<clipPath id="SVGID_2_">
		<use xlink:href="#SVGID_1_"  style="overflow:visible;"/>
	</clipPath>
	<g transform="matrix(1 0 0 1 779.400596 429.444054)" class="st0">
		<g>
			<defs>
				<circle id="SVGID_3_" cx="-397.5" cy="-201.5" r="248.6"/>
			</defs>
			<clipPath id="SVGID_4_">
				<use xlink:href="#SVGID_3_"  style="display:none;overflow:visible;"/>
			</clipPath>
			<g transform="matrix(1 -8.881784e-016 8.881784e-016 1 0 0)" style="clip-path:url(#SVGID_4_);enable-background:new    ;">
				
					<image style="overflow:visible;" width="1280" height="960" id="c:7926CB1A-C906-48C4-B0E0-53622744D8BE" xlink:href="2E3C6539.jpg"  layup:clip-height="960" layup:clip-left="0" layup:clip-top="0" layup:clip-width="959" layup:href-original="assets-library://asset/asset.JPG?id=15271901-AC69-46F3-BB32-8497D899A887&amp;ext=JPG" transform="matrix(6.182614e-009 0.5185 -0.5185 6.182614e-009 -148.356 -450.3909)">
				</image>
			</g>
			<g transform="matrix(1 -8.881784e-016 8.881784e-016 1 0 0)" style="clip-path:url(#SVGID_4_);enable-background:new    ;">
				
					<image style="overflow:visible;" width="1280" height="960" id="c:7926CB1A-C906-48C4-B0E0-53622744D8BE_1_" xlink:href="2E3C653B.jpg"  layup:clip-height="960" layup:clip-left="0" layup:clip-top="0" layup:clip-width="959" layup:href-original="assets-library://asset/asset.JPG?id=15271901-AC69-46F3-BB32-8497D899A887&amp;ext=JPG" transform="matrix(6.182614e-009 0.5185 -0.5185 6.182614e-009 -148.5626 -450.4598)">
				</image>
			</g>
		</g>
	</g>
</g>
</svg>
